<svg width="18" height="8" viewBox="0 0 18 8" fill="none" xmlns="http://www.w3.org/2000/svg">
<path d="M16.7632 0.174881C17.0478 -0.0581388 17.5052 -0.0581388 17.7877 0.174881C18.0702 0.4079 18.0713 0.784383 17.7877 1.0174L9.51224 7.8254C9.37575 7.93727 9.19172 8 8.99999 8C8.80826 8 8.62424 7.93727 8.48775 7.8254L0.212288 1.0174C0.145052 0.962388 0.0916595 0.896811 0.0552139 0.82449C0.0187702 0.752169 0 0.674546 0 0.596141C0 0.517736 0.0187702 0.440114 0.0552139 0.367793C0.0916595 0.295472 0.145052 0.229896 0.212288 0.174881C0.348469 0.0628471 0.532368 0 0.72401 0C0.915653 0 1.09955 0.0628471 1.23573 0.174881L9.00052 6.38381L16.7632 0.174881Z" fill="#C2C2C2"/>
</svg>
