<svg width="18" height="8" viewBox="0 0 18 8" fill="none" xmlns="http://www.w3.org/2000/svg">
<path d="M1.23679 7.82512C0.952154 8.05814 0.494848 8.05814 0.212302 7.82512C-0.0702439 7.5921 -0.0712904 7.21562 0.212302 6.9826L8.48776 0.174604C8.62425 0.0627258 8.80828 0 9.00001 0C9.19174 0 9.37576 0.0627258 9.51225 0.174604L17.7877 6.9826C17.8549 7.03761 17.9083 7.10319 17.9448 7.17551C17.9812 7.24783 18 7.32545 18 7.40386C18 7.48226 17.9812 7.55989 17.9448 7.63221C17.9083 7.70453 17.8549 7.7701 17.7877 7.82512C17.6515 7.93715 17.4676 8 17.276 8C17.0843 8 16.9004 7.93715 16.7643 7.82512L8.99948 1.61619L1.23679 7.82512Z" fill="#C2C2C2"/>
</svg>
